# xmcd CD database file
# Copyright (C) 1993-1998 Ti Kan
# 
# Track frame offsets:
#     150
#     16547
#     41372
#     59482
#     76140
#     101375
#     116952
#     130000
#     146860
#     162132
#     190020
#     207295
# 
# Disc length: 2980 seconds
# 
# Revision: 1
# Processed by: cddbd v1.4b41PL1 Copyright (c) Steve Scherf et al.
# Submitted via: DiscPlay 4.0.4
# 
DISCID=970ba20c
DTITLE=Countdown Dance Masters - Ultimate Dance Trax [CD8]
DYEAR=1900
DGENRE=
TTITLE0=Tears Don't Lie
TTITLE1=Over The Rainbow
TTITLE2=Love Religion
TTITLE3=Forever Young
TTITLE4=Rave Olympia
TTITLE5=No One
TTITLE6=Everybody Gonfi Gon
TTITLE7=No More
TTITLE8=Maximum Overdrive
TTITLE9=Omen III
TTITLE10=Slave to the music
TTITLE11=I got to give it up
EXTD=
EXTT0=
EXTT1=
EXTT2=
EXTT3=
EXTT4=
EXTT5=
EXTT6=
EXTT7=
EXTT8=
EXTT9=
EXTT10=
EXTT11=
PLAYORDER=
